HIERARCHY
ROOT hip
{
  OFFSET 0.0 0.0 0.0
  CHANNELS 6 Xposition Yposition Zposition Zrotation Yrotation Xrotation
  JOINT abdomen
  {
    OFFSET 0.0 20.6881 -0.73152
    CHANNELS 3 Zrotation Xrotation Yrotation
    JOINT chest
    {
      OFFSET 0.0 11.7043 -0.48768
      CHANNELS 3 Zrotation Xrotation Yrotation
      JOINT neck
      {
        OFFSET 0.0 22.1894 -2.19456
        CHANNELS 3 Zrotation Xrotation Yrotation
        JOINT head
        {
          OFFSET -0.24384 7.07133 1.2192
          CHANNELS 3 Zrotation Xrotation Yrotation
          JOINT leftEye
          {
            OFFSET 4.14528 8.04674 8.04672
            CHANNELS 3 Zrotation Xrotation Yrotation
            End Site
            {
              OFFSET 1.0 0.0 0.0
            }
          }
          JOINT rightEye
          {
            OFFSET -3.6576 8.04674 8.04672
            CHANNELS 3 Zrotation Xrotation Yrotation
            End Site
            {
              OFFSET 1.0 0.0 0.0
            }
          }
        }
      }
      JOINT rCollar
      {
        OFFSET -2.68224 19.2634 -4.8768
        CHANNELS 3 Zrotation Xrotation Yrotation
        JOINT rShldr
        {
          OFFSET -8.77824 -1.95073 1.46304
          CHANNELS 3 Zrotation Xrotation Yrotation
          JOINT rForeArm
          {
            OFFSET -28.1742 -1.7115 0.48768
            CHANNELS 3 Zrotation Xrotation Yrotation
            JOINT rHand
            {
              OFFSET -22.5879 0.773209 7.07136
              CHANNELS 3 Zrotation Xrotation Yrotation
              JOINT rThumb1
              {
                OFFSET -1.2192 -0.487915 3.41376
                CHANNELS 3 Zrotation Xrotation Yrotation
                JOINT rThumb2
                {
                  OFFSET -3.37035 -0.52449 3.41376
                  CHANNELS 3 Zrotation Xrotation Yrotation
                  End Site
                  {
                    OFFSET -1.78271 -1.18214 1.43049
                  }
                }
              }
              JOINT rIndex1
              {
                OFFSET -7.75947 0.938293 5.60832
                CHANNELS 3 Zrotation Xrotation Yrotation
                JOINT rIndex2
                {
                  OFFSET -2.54057 -0.884171 1.56538
                  CHANNELS 3 Zrotation Xrotation Yrotation
                  End Site
                  {
                    OFFSET -1.62519 -0.234802 1.16502
                  }
                }
              }
              JOINT rMid1
              {
                OFFSET -8.24714 1.18213 3.41376
                CHANNELS 3 Zrotation Xrotation Yrotation
                JOINT rMid2
                {
                  OFFSET -3.10165 -0.590103 1.0647
                  CHANNELS 3 Zrotation Xrotation Yrotation
                  End Site
                  {
                    OFFSET -2.48547 -0.328903 0.83742
                  }
                }
              }
              JOINT rRing1
              {
                OFFSET -8.82822 0.546677 1.51678
                CHANNELS 3 Zrotation Xrotation Yrotation
                JOINT rRing2
                {
                  OFFSET -2.60934 -0.819778 -0.0198488
                  CHANNELS 3 Zrotation Xrotation Yrotation
                  End Site
                  {
                    OFFSET -2.33842 -0.294052 0.168128
                  }
                }
              }
              JOINT rPinky1
              {
                OFFSET -8.27202 -0.0477905 -0.4584
                CHANNELS 3 Zrotation Xrotation Yrotation
                JOINT rPinky2
                {
                  OFFSET -1.82734 -0.647385 -0.700984
                  CHANNELS 3 Zrotation Xrotation Yrotation
                  End Site
                  {
                    OFFSET -1.69225 -0.51767 -0.607171
                  }
                }
              }
            }
          }
        }
      }
      JOINT lCollar
      {
        OFFSET 2.68224 19.2634 -4.8768
        CHANNELS 3 Zrotation Xrotation Yrotation
        JOINT lShldr
        {
          OFFSET 8.77824 -1.95073 1.46304
          CHANNELS 3 Zrotation Xrotation Yrotation
          JOINT lForeArm
          {
            OFFSET 28.1742 -1.7115 0.48768
            CHANNELS 3 Zrotation Xrotation Yrotation
            JOINT lHand
            {
              OFFSET 22.5879 0.773209 7.07136
              CHANNELS 3 Zrotation Xrotation Yrotation
              JOINT lThumb1
              {
                OFFSET 1.2192 -0.487915 3.41376
                CHANNELS 3 Zrotation Xrotation Yrotation
                JOINT lThumb2
                {
                  OFFSET 3.37035 -0.52449 3.41376
                  CHANNELS 3 Zrotation Xrotation Yrotation
                  End Site
                  {
                    OFFSET 1.78271 -1.18214 1.43049
                  }
                }
              }
              JOINT lIndex1
              {
                OFFSET 7.75947 0.938293 5.60832
                CHANNELS 3 Zrotation Xrotation Yrotation
                JOINT lIndex2
                {
                  OFFSET 2.54057 -0.884171 1.56538
                  CHANNELS 3 Zrotation Xrotation Yrotation
                  End Site
                  {
                    OFFSET 1.62519 -0.234802 1.16502
                  }
                }
              }
              JOINT lMid1
              {
                OFFSET 8.24714 1.18213 3.41376
                CHANNELS 3 Zrotation Xrotation Yrotation
                JOINT lMid2
                {
                  OFFSET 3.10165 -0.590103 1.0647
                  CHANNELS 3 Zrotation Xrotation Yrotation
                  End Site
                  {
                    OFFSET 2.48547 -0.328903 0.83742
                  }
                }
              }
              JOINT lRing1
              {
                OFFSET 8.82822 0.546677 1.51678
                CHANNELS 3 Zrotation Xrotation Yrotation
                JOINT lRing2
                {
                  OFFSET 2.60934 -0.819778 -0.0198488
                  CHANNELS 3 Zrotation Xrotation Yrotation
                  End Site
                  {
                    OFFSET 2.33842 -0.294052 0.168128
                  }
                }
              }
              JOINT lPinky1
              {
                OFFSET 8.27202 -0.0477905 -0.4584
                CHANNELS 3 Zrotation Xrotation Yrotation
                JOINT lPinky2
                {
                  OFFSET 1.82734 -0.647385 -0.700984
                  CHANNELS 3 Zrotation Xrotation Yrotation
                  End Site
                  {
                    OFFSET 1.69225 -0.51767 -0.607171
                  }
                }
              }
            }
          }
        }
      }
    }
  }
  JOINT rButtock
  {
    OFFSET -8.77824 4.35084 1.2192
    CHANNELS 3 Zrotation Xrotation Yrotation
    JOINT rThigh
    {
      OFFSET 0.0 -1.70687 -2.19456
      CHANNELS 3 Zrotation Xrotation Yrotation
      JOINT rShin
      {
        OFFSET 0.0 -36.8199 0.73152
        CHANNELS 3 Zrotation Xrotation Yrotation
        JOINT rFoot
        {
          OFFSET 0.73152 -45.1104 -5.12064
          CHANNELS 3 Zrotation Xrotation Yrotation
          End Site
          {
            OFFSET -1.1221 -3.69964 12.103
          }
        }
      }
    }
  }
  JOINT lButtock
  {
    OFFSET 8.77824 4.35084 1.2192
    CHANNELS 3 Zrotation Xrotation Yrotation
    JOINT lThigh
    {
      OFFSET 0.0 -1.70687 -2.19456
      CHANNELS 3 Zrotation Xrotation Yrotation
      JOINT lShin
      {
        OFFSET 0.0 -36.8199 0.73152
        CHANNELS 3 Zrotation Xrotation Yrotation
        JOINT lFoot
        {
          OFFSET -0.73152 -45.1104 -5.12064
          CHANNELS 3 Zrotation Xrotation Yrotation
          End Site
          {
            OFFSET 1.1221 -3.69964 12.103
          }
        }
      }
    }
  }
}
MOTION
Frames: 8
Frame Time: 0.00833333
-7.435565 82.5259 33.2522 1.6976 0.8778 -9.9742 9.77792 6.55916 -0.676495 5.55408 -2.45843 0.177034 4.10512 1.79377 1.63197 -22.0921 5.03132 3.24671 -0.0 0.0 0.0 -0.0 0.0 0.0 5.98943e-14 7.75309e-14 -2.97866e-14 74.2181 26.1059 6.40603 -13.8362 -6.82204 25.2268 -0.011178 -3.01726 -0.424444 6.74524e-10 -5.51272e-10 3.26336e-10 1.16781e-09 -9.54957e-10 5.63839e-10 6.74529e-10 -5.51272e-10 3.26324e-10 7.73091 5.47488 0.417314 6.74522e-10 -5.51272e-10 3.26339e-10 2.90554 0.965183 0.102902 6.74527e-10 -5.51273e-10 3.26337e-10 10.2786 0.731801 0.0259123 6.7452e-10 -5.51269e-10 3.26339e-10 2.22167 -0.733487 -0.20892 -5.666e-14 -1.19757e-13 4.46209e-14 -15.2452 -24.1473 14.9785 19.3557 -12.2224 -37.1379 0.114671 -9.61169 1.36378 -8.69575e-10 -2.13201e-10 8.87803e-10 -1.51167e-09 -3.6983e-10 1.53465e-09 -8.6958e-10 -2.13201e-10 8.87812e-10 -7.73091 5.47488 -0.417314 -8.69575e-10 -2.13203e-10 8.87811e-10 -2.90554 0.965183 -0.102902 -8.69579e-10 -2.13205e-10 8.87806e-10 -10.2786 0.731801 -0.0259123 -8.69565e-10 -2.13204e-10 8.87806e-10 -2.22167 -0.733487 0.20892 -2.03217e-16 0.0 -3.88251e-19 -6.20723 -9.16341 0.325823 -0.304319 39.5072 0.710195 -2.54195 -12.8485 -7.67778 2.03217e-16 0.0 3.88251e-19 10.0667 -8.99234 3.73831 0.877021 57.0267 -1.40445 0.6406 -4.0547 2.29368
-7.594320000000001 82.5111 33.8677 1.4059 0.8277 -10.2804 9.78301 6.31956 -0.641671 5.4778 -2.42535 0.174164 4.10543 1.80564 1.64994 -21.8968 5.45735 3.35929 -0.0 0.0 0.0 -0.0 0.0 0.0 -1.05721e-15 2.36436e-13 -2.11954e-14 74.3177 26.0502 6.10999 -13.9475 -6.91205 25.4486 -0.0107027 -2.95235 -0.415298 5.46053e-10 -8.39821e-10 7.96528e-10 9.44641e-10 -1.45399e-09 1.37618e-09 5.46057e-10 -8.39822e-10 7.96513e-10 7.73091 5.47488 0.417314 5.46049e-10 -8.39822e-10 7.96531e-10 2.90554 0.965183 0.102902 5.46055e-10 -8.39822e-10 7.96529e-10 10.2786 0.731801 0.0259123 5.46047e-10 -8.39818e-10 7.96531e-10 2.22167 -0.733487 -0.20892 -1.19068e-13 -3.05388e-13 9.68353e-14 -15.2283 -24.2911 14.9612 19.3308 -12.1927 -37.0791 0.115229 -9.63471 1.36711 -2.25369e-09 -5.52056e-10 1.69945e-09 -3.91186e-09 -9.56127e-10 2.93397e-09 -2.2537e-09 -5.52058e-10 1.69946e-09 -7.73091 5.47488 -0.417314 -2.25369e-09 -5.52061e-10 1.69946e-09 -2.90554 0.965183 -0.102902 -2.25369e-09 -5.52064e-10 1.69946e-09 -10.2786 0.731801 -0.0259123 -2.25368e-09 -5.52062e-10 1.69945e-09 -2.22167 -0.733487 0.20892 -2.03217e-16 0.0 -3.88251e-19 -6.03935 -8.32436 -0.0202703 -0.300006 39.333 0.715479 -2.48028 -13.1926 -7.33881 2.03217e-16 0.0 3.88251e-19 10.2929 -9.02054 3.73232 0.843277 56.3722 -1.37121 0.695279 -4.81286 2.41898
-7.7540000000000004 82.4962 34.4747 1.0851 0.775 -10.5791 9.79244 6.08063 -0.604434 5.38708 -2.39849 0.171379 4.1229 1.82853 1.66665 -21.6915 5.84538 3.45625 -0.0 0.0 0.0 -0.0 0.0 0.0 -3.97601e-14 3.29194e-13 -2.85256e-14 74.4284 25.8995 5.78726 -14.0257 -6.97516 25.6057 -0.0102276 -2.88621 -0.405977 4.8553e-10 -9.93322e-10 1.04754e-09 8.39328e-10 -1.71941e-09 1.80978e-09 4.85534e-10 -9.93323e-10 1.04752e-09 7.73091 5.47488 0.417314 4.85527e-10 -9.93322e-10 1.04754e-09 2.90554 0.965183 0.102902 4.85533e-10 -9.93322e-10 1.04754e-09 10.2786 0.731801 0.0259123 4.85525e-10 -9.93319e-10 1.04754e-09 2.22167 -0.733487 -0.20892 -1.49418e-13 -4.11099e-13 1.2588e-13 -15.2289 -24.4086 14.9366 19.3038 -12.1606 -37.0155 0.115073 -9.62856 1.36622 -2.98543e-09 -7.32157e-10 2.13543e-09 -5.1808e-09 -1.26772e-09 3.68568e-09 -2.98544e-09 -7.32161e-10 2.13544e-09 -7.73091 5.47488 -0.417314 -2.98543e-09 -7.32164e-10 2.13543e-09 -2.90554 0.965183 -0.102902 -2.98543e-09 -7.32166e-10 2.13543e-09 -10.2786 0.731801 -0.0259123 -2.98542e-09 -7.32164e-10 2.13542e-09 -2.22167 -0.733487 0.20892 -2.03217e-16 0.0 -3.88251e-19 -5.83956 -7.51443 -0.332407 -0.295808 39.1563 0.720119 -2.42433 -13.4921 -7.04445 2.03217e-16 0.0 3.88251e-19 10.5271 -9.0511 3.72338 0.810138 55.7023 -1.33887 0.774236 -5.55681 2.65404
-7.90803 82.4827 35.0717 0.7641 0.7223 -10.8636 9.82045 5.84497 -0.56554 5.27507 -2.38143 0.168386 4.16674 1.87235 1.68201 -21.478 6.17979 3.5328 -0.0 0.0 0.0 -0.0 0.0 0.0 -4.77897e-14 3.28733e-13 -6.71057e-14 74.5542 25.6275 5.43089 -14.0666 -7.00777 25.6892 -0.00976273 -2.81985 -0.396627 5.62184e-10 -9.55858e-10 9.71277e-10 9.71767e-10 -1.65451e-09 1.67783e-09 5.62186e-10 -9.55858e-10 9.71264e-10 7.73091 5.47488 0.417314 5.6218e-10 -9.55856e-10 9.71281e-10 2.90554 0.965183 0.102902 5.62187e-10 -9.55855e-10 9.71279e-10 10.2786 0.731801 0.0259123 5.6218e-10 -9.55852e-10 9.71282e-10 2.22167 -0.733487 -0.20892 -1.29388e-13 -4.00198e-13 1.20609e-13 -15.2451 -24.4927 14.8982 19.2734 -12.1245 -36.9438 0.113883 -9.57973 1.35916 -2.73614e-09 -6.72817e-10 2.01964e-09 -4.74873e-09 -1.16501e-09 3.48639e-09 -2.73615e-09 -6.72818e-10 2.01965e-09 -7.73091 5.47488 -0.417314 -2.73614e-09 -6.7282e-10 2.01965e-09 -2.90554 0.965183 -0.102902 -2.73614e-09 -6.72822e-10 2.01964e-09 -10.2786 0.731801 -0.0259123 -2.73613e-09 -6.72821e-10 2.01964e-09 -2.22167 -0.733487 0.20892 -2.03217e-16 0.0 -3.88251e-19 -5.5975 -6.72641 -0.607589 -0.291626 38.9692 0.723781 -2.3711 -13.7385 -6.78475 2.03217e-16 0.0 3.88251e-19 10.784 -9.08126 3.70683 0.777372 55.0127 -1.30729 0.884707 -6.29964 3.01056
-8.06344 82.4689 35.6569 0.4252 0.6592 -11.134 9.85945 5.61141 -0.526589 5.14718 -2.37224 0.164881 4.22763 1.92543 1.69589 -21.2449 6.48792 3.59541 -0.0 0.0 0.0 -0.0 0.0 0.0 -3.97935e-14 2.74623e-13 -1.24641e-13 74.6913 25.2432 5.04498 -14.072 -7.01203 25.7001 -0.0093052 -2.7527 -0.387167 7.00826e-10 -7.81382e-10 6.84716e-10 1.21171e-09 -1.35257e-09 1.18245e-09 7.00826e-10 -7.81379e-10 6.84708e-10 7.73091 5.47488 0.417314 7.00823e-10 -7.81376e-10 6.84722e-10 2.90554 0.965183 0.102902 7.00829e-10 -7.81375e-10 6.84719e-10 10.2786 0.731801 0.0259123 7.00825e-10 -7.81374e-10 6.84725e-10 2.22167 -0.733487 -0.20892 -7.80583e-14 -3.14677e-13 9.29256e-14 -15.2834 -24.5473 14.8438 19.2402 -12.0852 -36.8657 0.112065 -9.50406 1.34822 -1.87031e-09 -4.53947e-10 1.54485e-09 -3.24749e-09 -7.86202e-10 2.66819e-09 -1.87031e-09 -4.53945e-10 1.54486e-09 -7.73091 5.47488 -0.417314 -1.87031e-09 -4.53945e-10 1.54485e-09 -2.90554 0.965183 -0.102902 -1.87031e-09 -4.53947e-10 1.54485e-09 -10.2786 0.731801 -0.0259123 -1.8703e-09 -4.53946e-10 1.54485e-09 -2.22167 -0.733487 0.20892 -2.03217e-16 0.0 -3.88251e-19 -5.32685 -5.95289 -0.862232 -0.287401 38.7694 0.726533 -2.3194 -13.9442 -6.54879 2.03217e-16 0.0 3.88251e-19 11.057 -9.10528 3.68133 0.744377 54.2883 -1.27561 1.02799 -7.04239 3.47319
-8.20872 82.4558 36.2297 0.1027 0.5965 -11.3842 9.88318 5.37496 -0.484684 5.01477 -2.36431 0.161749 4.29186 1.97423 1.70854 -20.9952 6.78454 3.64972 -0.0 0.0 0.0 -0.0 0.0 0.0 -2.37413e-14 1.98101e-13 -1.75863e-13 74.8249 24.7971 4.64625 -14.051 -6.99524 25.6573 -0.00883947 -2.68289 -0.377334 8.02086e-10 -5.55244e-10 3.43328e-10 1.38709e-09 -9.61245e-10 5.92385e-10 8.02085e-10 -5.5524e-10 3.43325e-10 7.73091 5.47488 0.417314 8.02083e-10 -5.55235e-10 3.43334e-10 2.90554 0.965183 0.102902 8.02089e-10 -5.55234e-10 3.43332e-10 10.2786 0.731801 0.0259123 8.02087e-10 -5.55234e-10 3.4334e-10 2.22167 -0.733487 -0.20892 -2.23413e-14 -2.05599e-13 5.89839e-14 -15.3433 -24.5854 14.7895 19.2068 -12.0458 -36.7873 0.110076 -9.42002 1.33608 -8.54047e-10 -1.97165e-10 9.62659e-10 -1.48519e-09 -3.41756e-10 1.66463e-09 -8.54049e-10 -1.97158e-10 9.62669e-10 -7.73091 5.47488 -0.417314 -8.54046e-10 -1.97156e-10 9.62663e-10 -2.90554 0.965183 -0.102902 -8.54054e-10 -1.97157e-10 9.62663e-10 -10.2786 0.731801 -0.0259123 -8.54043e-10 -1.97158e-10 9.62664e-10 -2.22167 -0.733487 0.20892 -2.03217e-16 0.0 -3.88251e-19 -5.04755 -5.21607 -1.09231 -0.283423 38.5766 0.729097 -2.28175 -14.1192 -6.36796 2.03217e-16 0.0 3.88251e-19 11.318 -9.13364 3.65837 0.712176 53.5501 -1.24486 1.2028 -7.75306 4.02923
-8.34468 82.4402 36.7894 -0.195 0.5138 -11.6096 9.86543 5.13064 -0.436936 4.88918 -2.35102 0.159877 4.34569 2.0052 1.72025 -20.7318 7.0844 3.70139 -0.0 0.0 0.0 -0.0 0.0 0.0 -7.60268e-15 1.30401e-13 -1.95505e-13 74.9422 24.3404 4.25046 -14.0127 -6.96463 25.5795 -0.00835265 -2.60855 -0.366863 7.66593e-10 -3.62793e-10 1.02586e-10 1.32582e-09 -6.28188e-10 1.76348e-10 7.66592e-10 -3.62789e-10 1.02586e-10 7.73091 5.47488 0.417314 7.66592e-10 -3.62784e-10 1.02592e-10 2.90554 0.965183 0.102902 7.66598e-10 -3.62784e-10 1.02589e-10 10.2786 0.731801 0.0259123 7.66596e-10 -3.62784e-10 1.02598e-10 2.22167 -0.733487 -0.20892 1.0851e-14 -1.24032e-13 3.49364e-14 -15.4243 -24.6202 14.7513 19.1759 -12.0093 -36.7149 0.108346 -9.34611 1.3254 -1.53455e-10 -2.40832e-11 5.2469e-10 -2.69951e-10 -4.2136e-11 9.09278e-10 -1.53456e-10 -2.40748e-11 5.24699e-10 -7.73091 5.47488 -0.417314 -1.53454e-10 -2.40716e-11 5.24693e-10 -2.90554 0.965183 -0.102902 -1.53465e-10 -2.40731e-11 5.24695e-10 -10.2786 0.731801 -0.0259123 -1.53454e-10 -2.40736e-11 5.24696e-10 -2.22167 -0.733487 0.20892 -2.03217e-16 0.0 -3.88251e-19 -4.77999 -4.53813 -1.2938 -0.279977 38.4106 0.732185 -2.27075 -14.2738 -6.27369 2.03217e-16 0.0 3.88251e-19 11.5389 -9.17684 3.64941 0.681628 52.8194 -1.2159 1.40573 -8.39967 4.66567
-8.46485 82.42 37.3307 -0.4588 0.4362 -11.8058 9.79421 4.87131 -0.383212 4.77332 -2.33274 0.159191 4.38526 2.01903 1.72925 -20.4525 7.39808 3.74963 -0.0 0.0 0.0 -0.0 0.0 0.0 1.55368e-14 6.65173e-14 -1.68172e-13 75.0432 23.8619 3.852 -13.9539 -6.91745 25.461 -0.00783603 -2.52745 -0.355442 5.80881e-10 -2.31194e-10 1.41087e-11 1.0046e-09 -4.00416e-10 2.34977e-11 5.80882e-10 -2.31194e-10 1.41094e-11 7.73091 5.47488 0.417314 5.80881e-10 -2.31189e-10 1.41141e-11 2.90554 0.965183 0.102902 5.80887e-10 -2.31189e-10 1.41107e-11 10.2786 0.731801 0.0259123 5.80881e-10 -2.31189e-10 1.41188e-11 2.22167 -0.733487 -0.20892 1.20208e-14 -8.83444e-14 2.68029e-14 -15.5324 -24.6453 14.7312 19.149 -11.9777 -36.6521 0.107054 -9.29054 1.31738 8.60714e-11 3.7061e-11 3.09437e-10 1.46116e-10 6.37999e-11 5.37367e-10 8.60697e-11 3.70674e-11 3.09444e-10 -7.73091 5.47488 -0.417314 8.60726e-11 3.70709e-11 3.09439e-10 -2.90554 0.965183 -0.102902 8.60619e-11 3.70689e-11 3.09441e-10 -10.2786 0.731801 -0.0259123 8.60733e-11 3.70687e-11 3.0944e-10 -2.22167 -0.733487 0.20892 -2.03217e-16 0.0 -3.88251e-19 -4.53923 -3.93267 -1.47541 -0.27726 38.2813 0.736021 -2.28959 -14.4004 -6.2749 2.03217e-16 0.0 3.88251e-19 11.7038 -9.24083 3.65386 0.652727 52.0998 -1.18911 1.6487 -8.98029 5.42555
